<svg width="16" height="16" viewBox="0 0 16 16" fill="none" xmlns="http://www.w3.org/2000/svg">
<path d="M3.97764 1.82878C4.0722 2.18461 3.8604 2.54974 3.50456 2.6443C2.65191 2.8709 2 3.68031 2 4.66667C2 5.65302 2.65191 6.46244 3.50456 6.68903C3.8604 6.7836 4.0722 7.14872 3.97764 7.50456C3.88307 7.8604 3.51795 8.0722 3.16211 7.97764C1.71445 7.59292 0.666667 6.24627 0.666667 4.66667C0.666667 3.08706 1.71445 1.74042 3.16211 1.3557C3.51795 1.26113 3.88307 1.47294 3.97764 1.82878ZM12.0224 1.82878C12.1169 1.47294 12.4821 1.26113 12.8379 1.3557C14.2855 1.74042 15.3333 3.08706 15.3333 4.66667C15.3333 6.24627 14.2855 7.59292 12.8379 7.97764C12.4821 8.0722 12.1169 7.8604 12.0224 7.50456C11.9278 7.14872 12.1396 6.7836 12.4954 6.68903C13.3481 6.46244 14 5.65302 14 4.66667C14 3.68031 13.3481 2.8709 12.4954 2.6443C12.1396 2.54974 11.9278 2.18461 12.0224 1.82878ZM8 2.66667C6.89543 2.66667 6 3.5621 6 4.66667C6 5.77124 6.89543 6.66667 8 6.66667C9.10457 6.66667 10 5.77124 10 4.66667C10 3.5621 9.10457 2.66667 8 2.66667ZM4.66667 4.66667C4.66667 2.82572 6.15905 1.33333 8 1.33333C9.84095 1.33333 11.3333 2.82572 11.3333 4.66667C11.3333 6.50762 9.84095 8 8 8C6.15905 8 4.66667 6.50762 4.66667 4.66667ZM2.66667 12.5C2.66667 10.7511 4.08443 9.33333 5.83333 9.33333H10.1667C11.9156 9.33333 13.3333 10.7511 13.3333 12.5C13.3333 13.6966 12.3633 14.6667 11.1667 14.6667H4.83333C3.63672 14.6667 2.66667 13.6966 2.66667 12.5ZM5.83333 10.6667C4.82081 10.6667 4 11.4875 4 12.5C4 12.9602 4.3731 13.3333 4.83333 13.3333H11.1667C11.6269 13.3333 12 12.9602 12 12.5C12 11.4875 11.1792 10.6667 10.1667 10.6667H5.83333ZM1.65381 10.1509C1.93868 10.3841 1.98051 10.8042 1.74724 11.089C1.48824 11.4053 1.33333 11.8084 1.33333 12.2495C1.33333 12.5129 1.45481 12.7475 1.64742 12.9013C1.93514 13.1311 1.98215 13.5506 1.75242 13.8383C1.52268 14.126 1.1032 14.173 0.815472 13.9433C0.319623 13.5474 0 12.9355 0 12.2495C0 11.4893 0.26869 10.7901 0.715646 10.2443C0.948915 9.95943 1.36895 9.9176 1.65381 10.1509ZM14.3462 10.4014C14.6311 10.1681 15.0511 10.21 15.2844 10.4948C15.7313 11.0406 16 11.7398 16 12.5C16 13.1861 15.6804 13.7979 15.1845 14.1938C14.8968 14.4235 14.4773 14.3765 14.2476 14.0888C14.0178 13.8011 14.0649 13.3816 14.3526 13.1519C14.5452 12.9981 14.6667 12.7634 14.6667 12.5C14.6667 12.059 14.5118 11.6559 14.2528 11.3396C14.0195 11.0547 14.0613 10.6347 14.3462 10.4014Z" fill="#818CF8"/>
</svg>
